<svg width="20" height="20" viewBox="0 0 20 20" fill="none" xmlns="http://www.w3.org/2000/svg">
<rect width="20" height="20" rx="6" fill="#FF8469"/>
<path d="M8.38462 14.6154C8.28205 14.615 8.18064 14.5931 8.08669 14.5509C7.99274 14.5087 7.90827 14.4472 7.83852 14.3701L4.20278 10.4077C4.06687 10.2593 3.99407 10.0617 4.00038 9.85829C4.0035 9.75759 4.02596 9.6585 4.06647 9.56668C4.10697 9.47487 4.16473 9.39213 4.23644 9.32318C4.30816 9.25424 4.39243 9.20044 4.48444 9.16486C4.57645 9.12928 4.6744 9.11262 4.77269 9.11582C4.97121 9.12229 5.15909 9.20929 5.295 9.35767L8.37714 12.7223L14.6686 5.67115C14.7325 5.58969 14.8119 5.52247 14.902 5.47361C14.9921 5.42475 15.0911 5.39528 15.1927 5.38702C15.2944 5.37875 15.3966 5.39186 15.4931 5.42555C15.5896 5.45923 15.6784 5.51277 15.754 5.58289C15.8296 5.65301 15.8904 5.73821 15.9327 5.83328C15.975 5.92835 15.9978 6.03126 15.9999 6.13571C16.0019 6.24016 15.9831 6.34393 15.9445 6.44065C15.906 6.53737 15.8486 6.62501 15.7758 6.69816L8.93821 14.3625C8.86912 14.4409 8.78494 14.5039 8.69096 14.5474C8.59698 14.5909 8.49523 14.6141 8.39211 14.6154H8.38462Z" fill="white"/>
</svg>
